<?xml version="1.0" encoding="utf-8" standalone="no"?>
<!DOCTYPE svg PUBLIC "-//W3C//DTD SVG 1.1//EN"
  "http://www.w3.org/Graphics/SVG/1.1/DTD/svg11.dtd">
<!-- Created with matplotlib (https://matplotlib.org/) -->
<svg height="504pt" version="1.1" viewBox="0 0 1080 504" width="1080pt" xmlns="http://www.w3.org/2000/svg" xmlns:xlink="http://www.w3.org/1999/xlink">
 <defs>
  <style type="text/css">
*{stroke-linecap:butt;stroke-linejoin:round;}
  </style>
 </defs>
 <g id="figure_1">
  <g id="patch_1">
   <path d="M 0 504 
L 1080 504 
L 1080 0 
L 0 0 
z
" style="fill:#f0f0f0;"/>
  </g>
  <g id="axes_1">
   <g id="patch_2">
    <path d="M 86.4 233.443636 
L 1026 233.443636 
L 1026 60.48 
L 86.4 60.48 
z
" style="fill:#f0f0f0;"/>
   </g>
   <g id="matplotlib.axis_1"/>
   <g id="matplotlib.axis_2">
    <g id="ytick_1">
     <g id="line2d_1">
      <path clip-path="url(#p35d663ccf8)" d="M 86.4 233.443636 
L 1026 233.443636 
" style="fill:none;stroke:#cbcbcb;"/>
     </g>
     <g id="line2d_2"/>
     <g id="text_1">
      <!-- 0.0 -->
      <defs>
       <path d="M 31.78125 66.40625 
Q 24.171875 66.40625 20.328125 58.90625 
Q 16.5 51.421875 16.5 36.375 
Q 16.5 21.390625 20.328125 13.890625 
Q 24.171875 6.390625 31.78125 6.390625 
Q 39.453125 6.390625 43.28125 13.890625 
Q 47.125 21.390625 47.125 36.375 
Q 47.125 51.421875 43.28125 58.90625 
Q 39.453125 66.40625 31.78125 66.40625 
z
M 31.78125 74.21875 
Q 44.046875 74.21875 50.515625 64.515625 
Q 56.984375 54.828125 56.984375 36.375 
Q 56.984375 17.96875 50.515625 8.265625 
Q 44.046875 -1.421875 31.78125 -1.421875 
Q 19.53125 -1.421875 13.0625 8.265625 
Q 6.59375 17.96875 6.59375 36.375 
Q 6.59375 54.828125 13.0625 64.515625 
Q 19.53125 74.21875 31.78125 74.21875 
z
" id="DejaVuSans-48"/>
       <path d="M 10.6875 12.40625 
L 21 12.40625 
L 21 0 
L 10.6875 0 
z
" id="DejaVuSans-46"/>
      </defs>
      <g transform="translate(66.996875 237.242855)scale(0.1 -0.1)">
       <use xlink:href="#DejaVuSans-48"/>
       <use x="63.623047" xlink:href="#DejaVuSans-46"/>
       <use x="95.410156" xlink:href="#DejaVuSans-48"/>
      </g>
     </g>
    </g>
    <g id="ytick_2">
     <g id="line2d_3">
      <path clip-path="url(#p35d663ccf8)" d="M 86.4 203.057996 
L 1026 203.057996 
" style="fill:none;stroke:#cbcbcb;"/>
     </g>
     <g id="line2d_4"/>
     <g id="text_2">
      <!-- 0.1 -->
      <defs>
       <path d="M 12.40625 8.296875 
L 28.515625 8.296875 
L 28.515625 63.921875 
L 10.984375 60.40625 
L 10.984375 69.390625 
L 28.421875 72.90625 
L 38.28125 72.90625 
L 38.28125 8.296875 
L 54.390625 8.296875 
L 54.390625 0 
L 12.40625 0 
z
" id="DejaVuSans-49"/>
      </defs>
      <g transform="translate(66.996875 206.857214)scale(0.1 -0.1)">
       <use xlink:href="#DejaVuSans-48"/>
       <use x="63.623047" xlink:href="#DejaVuSans-46"/>
       <use x="95.410156" xlink:href="#DejaVuSans-49"/>
      </g>
     </g>
    </g>
    <g id="ytick_3">
     <g id="line2d_5">
      <path clip-path="url(#p35d663ccf8)" d="M 86.4 172.672355 
L 1026 172.672355 
" style="fill:none;stroke:#cbcbcb;"/>
     </g>
     <g id="line2d_6"/>
     <g id="text_3">
      <!-- 0.2 -->
      <defs>
       <path d="M 19.1875 8.296875 
L 53.609375 8.296875 
L 53.609375 0 
L 7.328125 0 
L 7.328125 8.296875 
Q 12.9375 14.109375 22.625 23.890625 
Q 32.328125 33.6875 34.8125 36.53125 
Q 39.546875 41.84375 41.421875 45.53125 
Q 43.3125 49.21875 43.3125 52.78125 
Q 43.3125 58.59375 39.234375 62.25 
Q 35.15625 65.921875 28.609375 65.921875 
Q 23.96875 65.921875 18.8125 64.3125 
Q 13.671875 62.703125 7.8125 59.421875 
L 7.8125 69.390625 
Q 13.765625 71.78125 18.9375 73 
Q 24.125 74.21875 28.421875 74.21875 
Q 39.75 74.21875 46.484375 68.546875 
Q 53.21875 62.890625 53.21875 53.421875 
Q 53.21875 48.921875 51.53125 44.890625 
Q 49.859375 40.875 45.40625 35.40625 
Q 44.1875 33.984375 37.640625 27.21875 
Q 31.109375 20.453125 19.1875 8.296875 
z
" id="DejaVuSans-50"/>
      </defs>
      <g transform="translate(66.996875 176.471574)scale(0.1 -0.1)">
       <use xlink:href="#DejaVuSans-48"/>
       <use x="63.623047" xlink:href="#DejaVuSans-46"/>
       <use x="95.410156" xlink:href="#DejaVuSans-50"/>
      </g>
     </g>
    </g>
    <g id="ytick_4">
     <g id="line2d_7">
      <path clip-path="url(#p35d663ccf8)" d="M 86.4 142.286714 
L 1026 142.286714 
" style="fill:none;stroke:#cbcbcb;"/>
     </g>
     <g id="line2d_8"/>
     <g id="text_4">
      <!-- 0.3 -->
      <defs>
       <path d="M 40.578125 39.3125 
Q 47.65625 37.796875 51.625 33 
Q 55.609375 28.21875 55.609375 21.1875 
Q 55.609375 10.40625 48.1875 4.484375 
Q 40.765625 -1.421875 27.09375 -1.421875 
Q 22.515625 -1.421875 17.65625 -0.515625 
Q 12.796875 0.390625 7.625 2.203125 
L 7.625 11.71875 
Q 11.71875 9.328125 16.59375 8.109375 
Q 21.484375 6.890625 26.8125 6.890625 
Q 36.078125 6.890625 40.9375 10.546875 
Q 45.796875 14.203125 45.796875 21.1875 
Q 45.796875 27.640625 41.28125 31.265625 
Q 36.765625 34.90625 28.71875 34.90625 
L 20.21875 34.90625 
L 20.21875 43.015625 
L 29.109375 43.015625 
Q 36.375 43.015625 40.234375 45.921875 
Q 44.09375 48.828125 44.09375 54.296875 
Q 44.09375 59.90625 40.109375 62.90625 
Q 36.140625 65.921875 28.71875 65.921875 
Q 24.65625 65.921875 20.015625 65.03125 
Q 15.375 64.15625 9.8125 62.3125 
L 9.8125 71.09375 
Q 15.4375 72.65625 20.34375 73.4375 
Q 25.25 74.21875 29.59375 74.21875 
Q 40.828125 74.21875 47.359375 69.109375 
Q 53.90625 64.015625 53.90625 55.328125 
Q 53.90625 49.265625 50.4375 45.09375 
Q 46.96875 40.921875 40.578125 39.3125 
z
" id="DejaVuSans-51"/>
      </defs>
      <g transform="translate(66.996875 146.085933)scale(0.1 -0.1)">
       <use xlink:href="#DejaVuSans-48"/>
       <use x="63.623047" xlink:href="#DejaVuSans-46"/>
       <use x="95.410156" xlink:href="#DejaVuSans-51"/>
      </g>
     </g>
    </g>
    <g id="ytick_5">
     <g id="line2d_9">
      <path clip-path="url(#p35d663ccf8)" d="M 86.4 111.901074 
L 1026 111.901074 
" style="fill:none;stroke:#cbcbcb;"/>
     </g>
     <g id="line2d_10"/>
     <g id="text_5">
      <!-- 0.4 -->
      <defs>
       <path d="M 37.796875 64.3125 
L 12.890625 25.390625 
L 37.796875 25.390625 
z
M 35.203125 72.90625 
L 47.609375 72.90625 
L 47.609375 25.390625 
L 58.015625 25.390625 
L 58.015625 17.1875 
L 47.609375 17.1875 
L 47.609375 0 
L 37.796875 0 
L 37.796875 17.1875 
L 4.890625 17.1875 
L 4.890625 26.703125 
z
" id="DejaVuSans-52"/>
      </defs>
      <g transform="translate(66.996875 115.700292)scale(0.1 -0.1)">
       <use xlink:href="#DejaVuSans-48"/>
       <use x="63.623047" xlink:href="#DejaVuSans-46"/>
       <use x="95.410156" xlink:href="#DejaVuSans-52"/>
      </g>
     </g>
    </g>
    <g id="ytick_6">
     <g id="line2d_11">
      <path clip-path="url(#p35d663ccf8)" d="M 86.4 81.515433 
L 1026 81.515433 
" style="fill:none;stroke:#cbcbcb;"/>
     </g>
     <g id="line2d_12"/>
     <g id="text_6">
      <!-- 0.5 -->
      <defs>
       <path d="M 10.796875 72.90625 
L 49.515625 72.90625 
L 49.515625 64.59375 
L 19.828125 64.59375 
L 19.828125 46.734375 
Q 21.96875 47.46875 24.109375 47.828125 
Q 26.265625 48.1875 28.421875 48.1875 
Q 40.625 48.1875 47.75 41.5 
Q 54.890625 34.8125 54.890625 23.390625 
Q 54.890625 11.625 47.5625 5.09375 
Q 40.234375 -1.421875 26.90625 -1.421875 
Q 22.3125 -1.421875 17.546875 -0.640625 
Q 12.796875 0.140625 7.71875 1.703125 
L 7.71875 11.625 
Q 12.109375 9.234375 16.796875 8.0625 
Q 21.484375 6.890625 26.703125 6.890625 
Q 35.15625 6.890625 40.078125 11.328125 
Q 45.015625 15.765625 45.015625 23.390625 
Q 45.015625 31 40.078125 35.4375 
Q 35.15625 39.890625 26.703125 39.890625 
Q 22.75 39.890625 18.8125 39.015625 
Q 14.890625 38.140625 10.796875 36.28125 
z
" id="DejaVuSans-53"/>
      </defs>
      <g transform="translate(66.996875 85.314652)scale(0.1 -0.1)">
       <use xlink:href="#DejaVuSans-48"/>
       <use x="63.623047" xlink:href="#DejaVuSans-46"/>
       <use x="95.410156" xlink:href="#DejaVuSans-53"/>
      </g>
     </g>
    </g>
    <g id="text_7">
     <!-- Relative importance -->
     <defs>
      <path d="M 44.390625 34.1875 
Q 47.5625 33.109375 50.5625 29.59375 
Q 53.5625 26.078125 56.59375 19.921875 
L 66.609375 0 
L 56 0 
L 46.6875 18.703125 
Q 43.0625 26.03125 39.671875 28.421875 
Q 36.28125 30.8125 30.421875 30.8125 
L 19.671875 30.8125 
L 19.671875 0 
L 9.8125 0 
L 9.8125 72.90625 
L 32.078125 72.90625 
Q 44.578125 72.90625 50.734375 67.671875 
Q 56.890625 62.453125 56.890625 51.90625 
Q 56.890625 45.015625 53.6875 40.46875 
Q 50.484375 35.9375 44.390625 34.1875 
z
M 19.671875 64.796875 
L 19.671875 38.921875 
L 32.078125 38.921875 
Q 39.203125 38.921875 42.84375 42.21875 
Q 46.484375 45.515625 46.484375 51.90625 
Q 46.484375 58.296875 42.84375 61.546875 
Q 39.203125 64.796875 32.078125 64.796875 
z
" id="DejaVuSans-82"/>
      <path d="M 56.203125 29.59375 
L 56.203125 25.203125 
L 14.890625 25.203125 
Q 15.484375 15.921875 20.484375 11.0625 
Q 25.484375 6.203125 34.421875 6.203125 
Q 39.59375 6.203125 44.453125 7.46875 
Q 49.3125 8.734375 54.109375 11.28125 
L 54.109375 2.78125 
Q 49.265625 0.734375 44.1875 -0.34375 
Q 39.109375 -1.421875 33.890625 -1.421875 
Q 20.796875 -1.421875 13.15625 6.1875 
Q 5.515625 13.8125 5.515625 26.8125 
Q 5.515625 40.234375 12.765625 48.109375 
Q 20.015625 56 32.328125 56 
Q 43.359375 56 49.78125 48.890625 
Q 56.203125 41.796875 56.203125 29.59375 
z
M 47.21875 32.234375 
Q 47.125 39.59375 43.09375 43.984375 
Q 39.0625 48.390625 32.421875 48.390625 
Q 24.90625 48.390625 20.390625 44.140625 
Q 15.875 39.890625 15.1875 32.171875 
z
" id="DejaVuSans-101"/>
      <path d="M 9.421875 75.984375 
L 18.40625 75.984375 
L 18.40625 0 
L 9.421875 0 
z
" id="DejaVuSans-108"/>
      <path d="M 34.28125 27.484375 
Q 23.390625 27.484375 19.1875 25 
Q 14.984375 22.515625 14.984375 16.5 
Q 14.984375 11.71875 18.140625 8.90625 
Q 21.296875 6.109375 26.703125 6.109375 
Q 34.1875 6.109375 38.703125 11.40625 
Q 43.21875 16.703125 43.21875 25.484375 
L 43.21875 27.484375 
z
M 52.203125 31.203125 
L 52.203125 0 
L 43.21875 0 
L 43.21875 8.296875 
Q 40.140625 3.328125 35.546875 0.953125 
Q 30.953125 -1.421875 24.3125 -1.421875 
Q 15.921875 -1.421875 10.953125 3.296875 
Q 6 8.015625 6 15.921875 
Q 6 25.140625 12.171875 29.828125 
Q 18.359375 34.515625 30.609375 34.515625 
L 43.21875 34.515625 
L 43.21875 35.40625 
Q 43.21875 41.609375 39.140625 45 
Q 35.0625 48.390625 27.6875 48.390625 
Q 23 48.390625 18.546875 47.265625 
Q 14.109375 46.140625 10.015625 43.890625 
L 10.015625 52.203125 
Q 14.9375 54.109375 19.578125 55.046875 
Q 24.21875 56 28.609375 56 
Q 40.484375 56 46.34375 49.84375 
Q 52.203125 43.703125 52.203125 31.203125 
z
" id="DejaVuSans-97"/>
      <path d="M 18.3125 70.21875 
L 18.3125 54.6875 
L 36.8125 54.6875 
L 36.8125 47.703125 
L 18.3125 47.703125 
L 18.3125 18.015625 
Q 18.3125 11.328125 20.140625 9.421875 
Q 21.96875 7.515625 27.59375 7.515625 
L 36.8125 7.515625 
L 36.8125 0 
L 27.59375 0 
Q 17.1875 0 13.234375 3.875 
Q 9.28125 7.765625 9.28125 18.015625 
L 9.28125 47.703125 
L 2.6875 47.703125 
L 2.6875 54.6875 
L 9.28125 54.6875 
L 9.28125 70.21875 
z
" id="DejaVuSans-116"/>
      <path d="M 9.421875 54.6875 
L 18.40625 54.6875 
L 18.40625 0 
L 9.421875 0 
z
M 9.421875 75.984375 
L 18.40625 75.984375 
L 18.40625 64.59375 
L 9.421875 64.59375 
z
" id="DejaVuSans-105"/>
      <path d="M 2.984375 54.6875 
L 12.5 54.6875 
L 29.59375 8.796875 
L 46.6875 54.6875 
L 56.203125 54.6875 
L 35.6875 0 
L 23.484375 0 
z
" id="DejaVuSans-118"/>
      <path id="DejaVuSans-32"/>
      <path d="M 52 44.1875 
Q 55.375 50.25 60.0625 53.125 
Q 64.75 56 71.09375 56 
Q 79.640625 56 84.28125 50.015625 
Q 88.921875 44.046875 88.921875 33.015625 
L 88.921875 0 
L 79.890625 0 
L 79.890625 32.71875 
Q 79.890625 40.578125 77.09375 44.375 
Q 74.3125 48.1875 68.609375 48.1875 
Q 61.625 48.1875 57.5625 43.546875 
Q 53.515625 38.921875 53.515625 30.90625 
L 53.515625 0 
L 44.484375 0 
L 44.484375 32.71875 
Q 44.484375 40.625 41.703125 44.40625 
Q 38.921875 48.1875 33.109375 48.1875 
Q 26.21875 48.1875 22.15625 43.53125 
Q 18.109375 38.875 18.109375 30.90625 
L 18.109375 0 
L 9.078125 0 
L 9.078125 54.6875 
L 18.109375 54.6875 
L 18.109375 46.1875 
Q 21.1875 51.21875 25.484375 53.609375 
Q 29.78125 56 35.6875 56 
Q 41.65625 56 45.828125 52.96875 
Q 50 49.953125 52 44.1875 
z
" id="DejaVuSans-109"/>
      <path d="M 18.109375 8.203125 
L 18.109375 -20.796875 
L 9.078125 -20.796875 
L 9.078125 54.6875 
L 18.109375 54.6875 
L 18.109375 46.390625 
Q 20.953125 51.265625 25.265625 53.625 
Q 29.59375 56 35.59375 56 
Q 45.5625 56 51.78125 48.09375 
Q 58.015625 40.1875 58.015625 27.296875 
Q 58.015625 14.40625 51.78125 6.484375 
Q 45.5625 -1.421875 35.59375 -1.421875 
Q 29.59375 -1.421875 25.265625 0.953125 
Q 20.953125 3.328125 18.109375 8.203125 
z
M 48.6875 27.296875 
Q 48.6875 37.203125 44.609375 42.84375 
Q 40.53125 48.484375 33.40625 48.484375 
Q 26.265625 48.484375 22.1875 42.84375 
Q 18.109375 37.203125 18.109375 27.296875 
Q 18.109375 17.390625 22.1875 11.75 
Q 26.265625 6.109375 33.40625 6.109375 
Q 40.53125 6.109375 44.609375 11.75 
Q 48.6875 17.390625 48.6875 27.296875 
z
" id="DejaVuSans-112"/>
      <path d="M 30.609375 48.390625 
Q 23.390625 48.390625 19.1875 42.75 
Q 14.984375 37.109375 14.984375 27.296875 
Q 14.984375 17.484375 19.15625 11.84375 
Q 23.34375 6.203125 30.609375 6.203125 
Q 37.796875 6.203125 41.984375 11.859375 
Q 46.1875 17.53125 46.1875 27.296875 
Q 46.1875 37.015625 41.984375 42.703125 
Q 37.796875 48.390625 30.609375 48.390625 
z
M 30.609375 56 
Q 42.328125 56 49.015625 48.375 
Q 55.71875 40.765625 55.71875 27.296875 
Q 55.71875 13.875 49.015625 6.21875 
Q 42.328125 -1.421875 30.609375 -1.421875 
Q 18.84375 -1.421875 12.171875 6.21875 
Q 5.515625 13.875 5.515625 27.296875 
Q 5.515625 40.765625 12.171875 48.375 
Q 18.84375 56 30.609375 56 
z
" id="DejaVuSans-111"/>
      <path d="M 41.109375 46.296875 
Q 39.59375 47.171875 37.8125 47.578125 
Q 36.03125 48 33.890625 48 
Q 26.265625 48 22.1875 43.046875 
Q 18.109375 38.09375 18.109375 28.8125 
L 18.109375 0 
L 9.078125 0 
L 9.078125 54.6875 
L 18.109375 54.6875 
L 18.109375 46.1875 
Q 20.953125 51.171875 25.484375 53.578125 
Q 30.03125 56 36.53125 56 
Q 37.453125 56 38.578125 55.875 
Q 39.703125 55.765625 41.0625 55.515625 
z
" id="DejaVuSans-114"/>
      <path d="M 54.890625 33.015625 
L 54.890625 0 
L 45.90625 0 
L 45.90625 32.71875 
Q 45.90625 40.484375 42.875 44.328125 
Q 39.84375 48.1875 33.796875 48.1875 
Q 26.515625 48.1875 22.3125 43.546875 
Q 18.109375 38.921875 18.109375 30.90625 
L 18.109375 0 
L 9.078125 0 
L 9.078125 54.6875 
L 18.109375 54.6875 
L 18.109375 46.1875 
Q 21.34375 51.125 25.703125 53.5625 
Q 30.078125 56 35.796875 56 
Q 45.21875 56 50.046875 50.171875 
Q 54.890625 44.34375 54.890625 33.015625 
z
" id="DejaVuSans-110"/>
      <path d="M 48.78125 52.59375 
L 48.78125 44.1875 
Q 44.96875 46.296875 41.140625 47.34375 
Q 37.3125 48.390625 33.40625 48.390625 
Q 24.65625 48.390625 19.8125 42.84375 
Q 14.984375 37.3125 14.984375 27.296875 
Q 14.984375 17.28125 19.8125 11.734375 
Q 24.65625 6.203125 33.40625 6.203125 
Q 37.3125 6.203125 41.140625 7.25 
Q 44.96875 8.296875 48.78125 10.40625 
L 48.78125 2.09375 
Q 45.015625 0.34375 40.984375 -0.53125 
Q 36.96875 -1.421875 32.421875 -1.421875 
Q 20.0625 -1.421875 12.78125 6.34375 
Q 5.515625 14.109375 5.515625 27.296875 
Q 5.515625 40.671875 12.859375 48.328125 
Q 20.21875 56 33.015625 56 
Q 37.15625 56 41.109375 55.140625 
Q 45.0625 54.296875 48.78125 52.59375 
z
" id="DejaVuSans-99"/>
     </defs>
     <g transform="translate(60.50125 207.346193)rotate(-90)scale(0.12 -0.12)">
      <use xlink:href="#DejaVuSans-82"/>
      <use x="64.982422" xlink:href="#DejaVuSans-101"/>
      <use x="126.505859" xlink:href="#DejaVuSans-108"/>
      <use x="154.289062" xlink:href="#DejaVuSans-97"/>
      <use x="215.568359" xlink:href="#DejaVuSans-116"/>
      <use x="254.777344" xlink:href="#DejaVuSans-105"/>
      <use x="282.560547" xlink:href="#DejaVuSans-118"/>
      <use x="341.740234" xlink:href="#DejaVuSans-101"/>
      <use x="403.263672" xlink:href="#DejaVuSans-32"/>
      <use x="435.050781" xlink:href="#DejaVuSans-105"/>
      <use x="462.833984" xlink:href="#DejaVuSans-109"/>
      <use x="560.246094" xlink:href="#DejaVuSans-112"/>
      <use x="623.722656" xlink:href="#DejaVuSans-111"/>
      <use x="684.904297" xlink:href="#DejaVuSans-114"/>
      <use x="726.017578" xlink:href="#DejaVuSans-116"/>
      <use x="765.226562" xlink:href="#DejaVuSans-97"/>
      <use x="826.505859" xlink:href="#DejaVuSans-110"/>
      <use x="889.884766" xlink:href="#DejaVuSans-99"/>
      <use x="944.865234" xlink:href="#DejaVuSans-101"/>
     </g>
    </g>
   </g>
   <g id="patch_3">
    <path clip-path="url(#p35d663ccf8)" d="M 107.754545 233.443636 
L 121.990909 233.443636 
L 121.990909 68.716364 
L 107.754545 68.716364 
z
" style="fill:#008fd5;"/>
   </g>
   <g id="patch_4">
    <path clip-path="url(#p35d663ccf8)" d="M 193.172727 233.443636 
L 207.409091 233.443636 
L 207.409091 188.997831 
L 193.172727 188.997831 
z
" style="fill:#008fd5;"/>
   </g>
   <g id="patch_5">
    <path clip-path="url(#p35d663ccf8)" d="M 278.590909 233.443636 
L 292.827273 233.443636 
L 292.827273 179.696508 
L 278.590909 179.696508 
z
" style="fill:#008fd5;"/>
   </g>
   <g id="patch_6">
    <path clip-path="url(#p35d663ccf8)" d="M 364.009091 233.443636 
L 378.245455 233.443636 
L 378.245455 231.990812 
L 364.009091 231.990812 
z
" style="fill:#008fd5;"/>
   </g>
   <g id="patch_7">
    <path clip-path="url(#p35d663ccf8)" d="M 449.427273 233.443636 
L 463.663636 233.443636 
L 463.663636 231.513791 
L 449.427273 231.513791 
z
" style="fill:#008fd5;"/>
   </g>
   <g id="patch_8">
    <path clip-path="url(#p35d663ccf8)" d="M 534.845455 233.443636 
L 549.081818 233.443636 
L 549.081818 229.115677 
L 534.845455 229.115677 
z
" style="fill:#008fd5;"/>
   </g>
   <g id="patch_9">
    <path clip-path="url(#p35d663ccf8)" d="M 620.263636 233.443636 
L 634.5 233.443636 
L 634.5 226.574277 
L 620.263636 226.574277 
z
" style="fill:#008fd5;"/>
   </g>
   <g id="patch_10">
    <path clip-path="url(#p35d663ccf8)" d="M 705.681818 233.443636 
L 719.918182 233.443636 
L 719.918182 207.454106 
L 705.681818 207.454106 
z
" style="fill:#008fd5;"/>
   </g>
   <g id="patch_11">
    <path clip-path="url(#p35d663ccf8)" d="M 791.1 233.443636 
L 805.336364 233.443636 
L 805.336364 233.076954 
L 791.1 233.076954 
z
" style="fill:#008fd5;"/>
   </g>
   <g id="patch_12">
    <path clip-path="url(#p35d663ccf8)" d="M 876.518182 233.443636 
L 890.754545 233.443636 
L 890.754545 233.443636 
L 876.518182 233.443636 
z
" style="fill:#008fd5;"/>
   </g>
   <g id="patch_13">
    <path clip-path="url(#p35d663ccf8)" d="M 961.936364 233.443636 
L 976.172727 233.443636 
L 976.172727 233.443636 
L 961.936364 233.443636 
z
" style="fill:#008fd5;"/>
   </g>
   <g id="patch_14">
    <path clip-path="url(#p35d663ccf8)" d="M 121.990909 233.443636 
L 136.227273 233.443636 
L 136.227273 101.876931 
L 121.990909 101.876931 
z
" style="fill:#fc4f30;"/>
   </g>
   <g id="patch_15">
    <path clip-path="url(#p35d663ccf8)" d="M 207.409091 233.443636 
L 221.645455 233.443636 
L 221.645455 190.085378 
L 207.409091 190.085378 
z
" style="fill:#fc4f30;"/>
   </g>
   <g id="patch_16">
    <path clip-path="url(#p35d663ccf8)" d="M 292.827273 233.443636 
L 307.063636 233.443636 
L 307.063636 203.697555 
L 292.827273 203.697555 
z
" style="fill:#fc4f30;"/>
   </g>
   <g id="patch_17">
    <path clip-path="url(#p35d663ccf8)" d="M 378.245455 233.443636 
L 392.481818 233.443636 
L 392.481818 213.529039 
L 378.245455 213.529039 
z
" style="fill:#fc4f30;"/>
   </g>
   <g id="patch_18">
    <path clip-path="url(#p35d663ccf8)" d="M 463.663636 233.443636 
L 477.9 233.443636 
L 477.9 207.696064 
L 463.663636 207.696064 
z
" style="fill:#fc4f30;"/>
   </g>
   <g id="patch_19">
    <path clip-path="url(#p35d663ccf8)" d="M 549.081818 233.443636 
L 563.318182 233.443636 
L 563.318182 215.724082 
L 549.081818 215.724082 
z
" style="fill:#fc4f30;"/>
   </g>
   <g id="patch_20">
    <path clip-path="url(#p35d663ccf8)" d="M 634.5 233.443636 
L 648.736364 233.443636 
L 648.736364 215.555054 
L 634.5 215.555054 
z
" style="fill:#fc4f30;"/>
   </g>
   <g id="patch_21">
    <path clip-path="url(#p35d663ccf8)" d="M 719.918182 233.443636 
L 734.154545 233.443636 
L 734.154545 219.361182 
L 719.918182 219.361182 
z
" style="fill:#fc4f30;"/>
   </g>
   <g id="patch_22">
    <path clip-path="url(#p35d663ccf8)" d="M 805.336364 233.443636 
L 819.572727 233.443636 
L 819.572727 231.683084 
L 805.336364 231.683084 
z
" style="fill:#fc4f30;"/>
   </g>
   <g id="patch_23">
    <path clip-path="url(#p35d663ccf8)" d="M 890.754545 233.443636 
L 904.990909 233.443636 
L 904.990909 231.461503 
L 890.754545 231.461503 
z
" style="fill:#fc4f30;"/>
   </g>
   <g id="patch_24">
    <path clip-path="url(#p35d663ccf8)" d="M 976.172727 233.443636 
L 990.409091 233.443636 
L 990.409091 233.353722 
L 976.172727 233.353722 
z
" style="fill:#fc4f30;"/>
   </g>
   <g id="patch_25">
    <path clip-path="url(#p35d663ccf8)" d="M 136.227273 233.443636 
L 150.463636 233.443636 
L 150.463636 127.037076 
L 136.227273 127.037076 
z
" style="fill:#e5ae38;"/>
   </g>
   <g id="patch_26">
    <path clip-path="url(#p35d663ccf8)" d="M 221.645455 233.443636 
L 235.881818 233.443636 
L 235.881818 188.736479 
L 221.645455 188.736479 
z
" style="fill:#e5ae38;"/>
   </g>
   <g id="patch_27">
    <path clip-path="url(#p35d663ccf8)" d="M 307.063636 233.443636 
L 321.3 233.443636 
L 321.3 189.471084 
L 307.063636 189.471084 
z
" style="fill:#e5ae38;"/>
   </g>
   <g id="patch_28">
    <path clip-path="url(#p35d663ccf8)" d="M 392.481818 233.443636 
L 406.718182 233.443636 
L 406.718182 211.25258 
L 392.481818 211.25258 
z
" style="fill:#e5ae38;"/>
   </g>
   <g id="patch_29">
    <path clip-path="url(#p35d663ccf8)" d="M 477.9 233.443636 
L 492.136364 233.443636 
L 492.136364 211.591871 
L 477.9 211.591871 
z
" style="fill:#e5ae38;"/>
   </g>
   <g id="patch_30">
    <path clip-path="url(#p35d663ccf8)" d="M 563.318182 233.443636 
L 577.554545 233.443636 
L 577.554545 212.325549 
L 563.318182 212.325549 
z
" style="fill:#e5ae38;"/>
   </g>
   <g id="patch_31">
    <path clip-path="url(#p35d663ccf8)" d="M 648.736364 233.443636 
L 662.972727 233.443636 
L 662.972727 212.812572 
L 648.736364 212.812572 
z
" style="fill:#e5ae38;"/>
   </g>
   <g id="patch_32">
    <path clip-path="url(#p35d663ccf8)" d="M 734.154545 233.443636 
L 748.390909 233.443636 
L 748.390909 216.727868 
L 734.154545 216.727868 
z
" style="fill:#e5ae38;"/>
   </g>
   <g id="patch_33">
    <path clip-path="url(#p35d663ccf8)" d="M 819.572727 233.443636 
L 833.809091 233.443636 
L 833.809091 230.046439 
L 819.572727 230.046439 
z
" style="fill:#e5ae38;"/>
   </g>
   <g id="patch_34">
    <path clip-path="url(#p35d663ccf8)" d="M 904.990909 233.443636 
L 919.227273 233.443636 
L 919.227273 230.74998 
L 904.990909 230.74998 
z
" style="fill:#e5ae38;"/>
   </g>
   <g id="patch_35">
    <path clip-path="url(#p35d663ccf8)" d="M 990.409091 233.443636 
L 1004.645455 233.443636 
L 1004.645455 233.272096 
L 990.409091 233.272096 
z
" style="fill:#e5ae38;"/>
   </g>
   <g id="patch_36">
    <path clip-path="url(#p35d663ccf8)" d="M 107.754545 233.443636 
L 121.990909 233.443636 
L 121.990909 68.716364 
L 107.754545 68.716364 
z
" style="fill:#008fd5;"/>
   </g>
   <g id="patch_37">
    <path clip-path="url(#p35d663ccf8)" d="M 193.172727 233.443636 
L 207.409091 233.443636 
L 207.409091 188.997831 
L 193.172727 188.997831 
z
" style="fill:#008fd5;"/>
   </g>
   <g id="patch_38">
    <path clip-path="url(#p35d663ccf8)" d="M 278.590909 233.443636 
L 292.827273 233.443636 
L 292.827273 179.696508 
L 278.590909 179.696508 
z
" style="fill:#008fd5;"/>
   </g>
   <g id="patch_39">
    <path clip-path="url(#p35d663ccf8)" d="M 364.009091 233.443636 
L 378.245455 233.443636 
L 378.245455 231.990812 
L 364.009091 231.990812 
z
" style="fill:#008fd5;"/>
   </g>
   <g id="patch_40">
    <path clip-path="url(#p35d663ccf8)" d="M 449.427273 233.443636 
L 463.663636 233.443636 
L 463.663636 231.513791 
L 449.427273 231.513791 
z
" style="fill:#008fd5;"/>
   </g>
   <g id="patch_41">
    <path clip-path="url(#p35d663ccf8)" d="M 534.845455 233.443636 
L 549.081818 233.443636 
L 549.081818 229.115677 
L 534.845455 229.115677 
z
" style="fill:#008fd5;"/>
   </g>
   <g id="patch_42">
    <path clip-path="url(#p35d663ccf8)" d="M 620.263636 233.443636 
L 634.5 233.443636 
L 634.5 226.574277 
L 620.263636 226.574277 
z
" style="fill:#008fd5;"/>
   </g>
   <g id="patch_43">
    <path clip-path="url(#p35d663ccf8)" d="M 705.681818 233.443636 
L 719.918182 233.443636 
L 719.918182 207.454106 
L 705.681818 207.454106 
z
" style="fill:#008fd5;"/>
   </g>
   <g id="patch_44">
    <path clip-path="url(#p35d663ccf8)" d="M 791.1 233.443636 
L 805.336364 233.443636 
L 805.336364 233.076954 
L 791.1 233.076954 
z
" style="fill:#008fd5;"/>
   </g>
   <g id="patch_45">
    <path clip-path="url(#p35d663ccf8)" d="M 876.518182 233.443636 
L 890.754545 233.443636 
L 890.754545 233.443636 
L 876.518182 233.443636 
z
" style="fill:#008fd5;"/>
   </g>
   <g id="patch_46">
    <path clip-path="url(#p35d663ccf8)" d="M 961.936364 233.443636 
L 976.172727 233.443636 
L 976.172727 233.443636 
L 961.936364 233.443636 
z
" style="fill:#008fd5;"/>
   </g>
   <g id="patch_47">
    <path clip-path="url(#p35d663ccf8)" d="M 121.990909 233.443636 
L 136.227273 233.443636 
L 136.227273 101.876931 
L 121.990909 101.876931 
z
" style="fill:#fc4f30;"/>
   </g>
   <g id="patch_48">
    <path clip-path="url(#p35d663ccf8)" d="M 207.409091 233.443636 
L 221.645455 233.443636 
L 221.645455 190.085378 
L 207.409091 190.085378 
z
" style="fill:#fc4f30;"/>
   </g>
   <g id="patch_49">
    <path clip-path="url(#p35d663ccf8)" d="M 292.827273 233.443636 
L 307.063636 233.443636 
L 307.063636 203.697555 
L 292.827273 203.697555 
z
" style="fill:#fc4f30;"/>
   </g>
   <g id="patch_50">
    <path clip-path="url(#p35d663ccf8)" d="M 378.245455 233.443636 
L 392.481818 233.443636 
L 392.481818 213.529039 
L 378.245455 213.529039 
z
" style="fill:#fc4f30;"/>
   </g>
   <g id="patch_51">
    <path clip-path="url(#p35d663ccf8)" d="M 463.663636 233.443636 
L 477.9 233.443636 
L 477.9 207.696064 
L 463.663636 207.696064 
z
" style="fill:#fc4f30;"/>
   </g>
   <g id="patch_52">
    <path clip-path="url(#p35d663ccf8)" d="M 549.081818 233.443636 
L 563.318182 233.443636 
L 563.318182 215.724082 
L 549.081818 215.724082 
z
" style="fill:#fc4f30;"/>
   </g>
   <g id="patch_53">
    <path clip-path="url(#p35d663ccf8)" d="M 634.5 233.443636 
L 648.736364 233.443636 
L 648.736364 215.555054 
L 634.5 215.555054 
z
" style="fill:#fc4f30;"/>
   </g>
   <g id="patch_54">
    <path clip-path="url(#p35d663ccf8)" d="M 719.918182 233.443636 
L 734.154545 233.443636 
L 734.154545 219.361182 
L 719.918182 219.361182 
z
" style="fill:#fc4f30;"/>
   </g>
   <g id="patch_55">
    <path clip-path="url(#p35d663ccf8)" d="M 805.336364 233.443636 
L 819.572727 233.443636 
L 819.572727 231.683084 
L 805.336364 231.683084 
z
" style="fill:#fc4f30;"/>
   </g>
   <g id="patch_56">
    <path clip-path="url(#p35d663ccf8)" d="M 890.754545 233.443636 
L 904.990909 233.443636 
L 904.990909 231.461503 
L 890.754545 231.461503 
z
" style="fill:#fc4f30;"/>
   </g>
   <g id="patch_57">
    <path clip-path="url(#p35d663ccf8)" d="M 976.172727 233.443636 
L 990.409091 233.443636 
L 990.409091 233.353722 
L 976.172727 233.353722 
z
" style="fill:#fc4f30;"/>
   </g>
   <g id="patch_58">
    <path clip-path="url(#p35d663ccf8)" d="M 136.227273 233.443636 
L 150.463636 233.443636 
L 150.463636 127.037076 
L 136.227273 127.037076 
z
" style="fill:#e5ae38;"/>
   </g>
   <g id="patch_59">
    <path clip-path="url(#p35d663ccf8)" d="M 221.645455 233.443636 
L 235.881818 233.443636 
L 235.881818 188.736479 
L 221.645455 188.736479 
z
" style="fill:#e5ae38;"/>
   </g>
   <g id="patch_60">
    <path clip-path="url(#p35d663ccf8)" d="M 307.063636 233.443636 
L 321.3 233.443636 
L 321.3 189.471084 
L 307.063636 189.471084 
z
" style="fill:#e5ae38;"/>
   </g>
   <g id="patch_61">
    <path clip-path="url(#p35d663ccf8)" d="M 392.481818 233.443636 
L 406.718182 233.443636 
L 406.718182 211.25258 
L 392.481818 211.25258 
z
" style="fill:#e5ae38;"/>
   </g>
   <g id="patch_62">
    <path clip-path="url(#p35d663ccf8)" d="M 477.9 233.443636 
L 492.136364 233.443636 
L 492.136364 211.591871 
L 477.9 211.591871 
z
" style="fill:#e5ae38;"/>
   </g>
   <g id="patch_63">
    <path clip-path="url(#p35d663ccf8)" d="M 563.318182 233.443636 
L 577.554545 233.443636 
L 577.554545 212.325549 
L 563.318182 212.325549 
z
" style="fill:#e5ae38;"/>
   </g>
   <g id="patch_64">
    <path clip-path="url(#p35d663ccf8)" d="M 648.736364 233.443636 
L 662.972727 233.443636 
L 662.972727 212.812572 
L 648.736364 212.812572 
z
" style="fill:#e5ae38;"/>
   </g>
   <g id="patch_65">
    <path clip-path="url(#p35d663ccf8)" d="M 734.154545 233.443636 
L 748.390909 233.443636 
L 748.390909 216.727868 
L 734.154545 216.727868 
z
" style="fill:#e5ae38;"/>
   </g>
   <g id="patch_66">
    <path clip-path="url(#p35d663ccf8)" d="M 819.572727 233.443636 
L 833.809091 233.443636 
L 833.809091 230.046439 
L 819.572727 230.046439 
z
" style="fill:#e5ae38;"/>
   </g>
   <g id="patch_67">
    <path clip-path="url(#p35d663ccf8)" d="M 904.990909 233.443636 
L 919.227273 233.443636 
L 919.227273 230.74998 
L 904.990909 230.74998 
z
" style="fill:#e5ae38;"/>
   </g>
   <g id="patch_68">
    <path clip-path="url(#p35d663ccf8)" d="M 990.409091 233.443636 
L 1004.645455 233.443636 
L 1004.645455 233.272096 
L 990.409091 233.272096 
z
" style="fill:#e5ae38;"/>
   </g>
   <g id="patch_69">
    <path d="M 86.4 233.443636 
L 86.4 60.48 
" style="fill:none;stroke:#f0f0f0;stroke-linecap:square;stroke-linejoin:miter;stroke-width:3;"/>
   </g>
   <g id="patch_70">
    <path d="M 1026 233.443636 
L 1026 60.48 
" style="fill:none;stroke:#f0f0f0;stroke-linecap:square;stroke-linejoin:miter;stroke-width:3;"/>
   </g>
   <g id="patch_71">
    <path d="M 86.4 233.443636 
L 1026 233.443636 
" style="fill:none;stroke:#f0f0f0;stroke-linecap:square;stroke-linejoin:miter;stroke-width:3;"/>
   </g>
   <g id="patch_72">
    <path d="M 86.4 60.48 
L 1026 60.48 
" style="fill:none;stroke:#f0f0f0;stroke-linecap:square;stroke-linejoin:miter;stroke-width:3;"/>
   </g>
   <g id="text_8">
    <!-- Features importance -->
    <defs>
     <path d="M 9.8125 72.90625 
L 51.703125 72.90625 
L 51.703125 64.59375 
L 19.671875 64.59375 
L 19.671875 43.109375 
L 48.578125 43.109375 
L 48.578125 34.8125 
L 19.671875 34.8125 
L 19.671875 0 
L 9.8125 0 
z
" id="DejaVuSans-70"/>
     <path d="M 8.5 21.578125 
L 8.5 54.6875 
L 17.484375 54.6875 
L 17.484375 21.921875 
Q 17.484375 14.15625 20.5 10.265625 
Q 23.53125 6.390625 29.59375 6.390625 
Q 36.859375 6.390625 41.078125 11.03125 
Q 45.3125 15.671875 45.3125 23.6875 
L 45.3125 54.6875 
L 54.296875 54.6875 
L 54.296875 0 
L 45.3125 0 
L 45.3125 8.40625 
Q 42.046875 3.421875 37.71875 1 
Q 33.40625 -1.421875 27.6875 -1.421875 
Q 18.265625 -1.421875 13.375 4.4375 
Q 8.5 10.296875 8.5 21.578125 
z
M 31.109375 56 
z
" id="DejaVuSans-117"/>
     <path d="M 44.28125 53.078125 
L 44.28125 44.578125 
Q 40.484375 46.53125 36.375 47.5 
Q 32.28125 48.484375 27.875 48.484375 
Q 21.1875 48.484375 17.84375 46.4375 
Q 14.5 44.390625 14.5 40.28125 
Q 14.5 37.15625 16.890625 35.375 
Q 19.28125 33.59375 26.515625 31.984375 
L 29.59375 31.296875 
Q 39.15625 29.25 43.1875 25.515625 
Q 47.21875 21.78125 47.21875 15.09375 
Q 47.21875 7.46875 41.1875 3.015625 
Q 35.15625 -1.421875 24.609375 -1.421875 
Q 20.21875 -1.421875 15.453125 -0.5625 
Q 10.6875 0.296875 5.421875 2 
L 5.421875 11.28125 
Q 10.40625 8.6875 15.234375 7.390625 
Q 20.0625 6.109375 24.8125 6.109375 
Q 31.15625 6.109375 34.5625 8.28125 
Q 37.984375 10.453125 37.984375 14.40625 
Q 37.984375 18.0625 35.515625 20.015625 
Q 33.0625 21.96875 24.703125 23.78125 
L 21.578125 24.515625 
Q 13.234375 26.265625 9.515625 29.90625 
Q 5.8125 33.546875 5.8125 39.890625 
Q 5.8125 47.609375 11.28125 51.796875 
Q 16.75 56 26.8125 56 
Q 31.78125 56 36.171875 55.265625 
Q 40.578125 54.546875 44.28125 53.078125 
z
" id="DejaVuSans-115"/>
    </defs>
    <g transform="translate(481.822875 54.48)scale(0.144 -0.144)">
     <use xlink:href="#DejaVuSans-70"/>
     <use x="52.019531" xlink:href="#DejaVuSans-101"/>
     <use x="113.542969" xlink:href="#DejaVuSans-97"/>
     <use x="174.822266" xlink:href="#DejaVuSans-116"/>
     <use x="214.03125" xlink:href="#DejaVuSans-117"/>
     <use x="277.410156" xlink:href="#DejaVuSans-114"/>
     <use x="316.273438" xlink:href="#DejaVuSans-101"/>
     <use x="377.796875" xlink:href="#DejaVuSans-115"/>
     <use x="429.896484" xlink:href="#DejaVuSans-32"/>
     <use x="461.683594" xlink:href="#DejaVuSans-105"/>
     <use x="489.466797" xlink:href="#DejaVuSans-109"/>
     <use x="586.878906" xlink:href="#DejaVuSans-112"/>
     <use x="650.355469" xlink:href="#DejaVuSans-111"/>
     <use x="711.537109" xlink:href="#DejaVuSans-114"/>
     <use x="752.650391" xlink:href="#DejaVuSans-116"/>
     <use x="791.859375" xlink:href="#DejaVuSans-97"/>
     <use x="853.138672" xlink:href="#DejaVuSans-110"/>
     <use x="916.517578" xlink:href="#DejaVuSans-99"/>
     <use x="971.498047" xlink:href="#DejaVuSans-101"/>
    </g>
   </g>
   <g id="legend_1">
    <g id="patch_73">
     <path d="M 968.804688 156.54875 
L 1019 156.54875 
Q 1021 156.54875 1021 154.54875 
L 1021 67.48 
Q 1021 65.48 1019 65.48 
L 968.804688 65.48 
Q 966.804688 65.48 966.804688 67.48 
L 966.804688 154.54875 
Q 966.804688 156.54875 968.804688 156.54875 
z
" style="fill:#f0f0f0;opacity:0.8;stroke:#cccccc;stroke-linejoin:miter;stroke-width:0.5;"/>
    </g>
    <g id="patch_74">
     <path d="M 970.804688 77.078438 
L 990.804688 77.078438 
L 990.804688 70.078438 
L 970.804688 70.078438 
z
" style="fill:#008fd5;"/>
    </g>
    <g id="text_9">
     <!-- dtc -->
     <defs>
      <path d="M 45.40625 46.390625 
L 45.40625 75.984375 
L 54.390625 75.984375 
L 54.390625 0 
L 45.40625 0 
L 45.40625 8.203125 
Q 42.578125 3.328125 38.25 0.953125 
Q 33.9375 -1.421875 27.875 -1.421875 
Q 17.96875 -1.421875 11.734375 6.484375 
Q 5.515625 14.40625 5.515625 27.296875 
Q 5.515625 40.1875 11.734375 48.09375 
Q 17.96875 56 27.875 56 
Q 33.9375 56 38.25 53.625 
Q 42.578125 51.265625 45.40625 46.390625 
z
M 14.796875 27.296875 
Q 14.796875 17.390625 18.875 11.75 
Q 22.953125 6.109375 30.078125 6.109375 
Q 37.203125 6.109375 41.296875 11.75 
Q 45.40625 17.390625 45.40625 27.296875 
Q 45.40625 37.203125 41.296875 42.84375 
Q 37.203125 48.484375 30.078125 48.484375 
Q 22.953125 48.484375 18.875 42.84375 
Q 14.796875 37.203125 14.796875 27.296875 
z
" id="DejaVuSans-100"/>
     </defs>
     <g transform="translate(998.804688 77.078438)scale(0.1 -0.1)">
      <use xlink:href="#DejaVuSans-100"/>
      <use x="63.476562" xlink:href="#DejaVuSans-116"/>
      <use x="102.685547" xlink:href="#DejaVuSans-99"/>
     </g>
    </g>
    <g id="patch_75">
     <path d="M 970.804688 91.756563 
L 990.804688 91.756563 
L 990.804688 84.756563 
L 970.804688 84.756563 
z
" style="fill:#fc4f30;"/>
    </g>
    <g id="text_10">
     <!-- rfc -->
     <defs>
      <path d="M 37.109375 75.984375 
L 37.109375 68.5 
L 28.515625 68.5 
Q 23.6875 68.5 21.796875 66.546875 
Q 19.921875 64.59375 19.921875 59.515625 
L 19.921875 54.6875 
L 34.71875 54.6875 
L 34.71875 47.703125 
L 19.921875 47.703125 
L 19.921875 0 
L 10.890625 0 
L 10.890625 47.703125 
L 2.296875 47.703125 
L 2.296875 54.6875 
L 10.890625 54.6875 
L 10.890625 58.5 
Q 10.890625 67.625 15.140625 71.796875 
Q 19.390625 75.984375 28.609375 75.984375 
z
" id="DejaVuSans-102"/>
     </defs>
     <g transform="translate(998.804688 91.756563)scale(0.1 -0.1)">
      <use xlink:href="#DejaVuSans-114"/>
      <use x="41.113281" xlink:href="#DejaVuSans-102"/>
      <use x="76.318359" xlink:href="#DejaVuSans-99"/>
     </g>
    </g>
    <g id="patch_76">
     <path d="M 970.804688 106.434688 
L 990.804688 106.434688 
L 990.804688 99.434688 
L 970.804688 99.434688 
z
" style="fill:#e5ae38;"/>
    </g>
    <g id="text_11">
     <!-- gbc -->
     <defs>
      <path d="M 45.40625 27.984375 
Q 45.40625 37.75 41.375 43.109375 
Q 37.359375 48.484375 30.078125 48.484375 
Q 22.859375 48.484375 18.828125 43.109375 
Q 14.796875 37.75 14.796875 27.984375 
Q 14.796875 18.265625 18.828125 12.890625 
Q 22.859375 7.515625 30.078125 7.515625 
Q 37.359375 7.515625 41.375 12.890625 
Q 45.40625 18.265625 45.40625 27.984375 
z
M 54.390625 6.78125 
Q 54.390625 -7.171875 48.1875 -13.984375 
Q 42 -20.796875 29.203125 -20.796875 
Q 24.46875 -20.796875 20.265625 -20.09375 
Q 16.0625 -19.390625 12.109375 -17.921875 
L 12.109375 -9.1875 
Q 16.0625 -11.328125 19.921875 -12.34375 
Q 23.78125 -13.375 27.78125 -13.375 
Q 36.625 -13.375 41.015625 -8.765625 
Q 45.40625 -4.15625 45.40625 5.171875 
L 45.40625 9.625 
Q 42.625 4.78125 38.28125 2.390625 
Q 33.9375 0 27.875 0 
Q 17.828125 0 11.671875 7.65625 
Q 5.515625 15.328125 5.515625 27.984375 
Q 5.515625 40.671875 11.671875 48.328125 
Q 17.828125 56 27.875 56 
Q 33.9375 56 38.28125 53.609375 
Q 42.625 51.21875 45.40625 46.390625 
L 45.40625 54.6875 
L 54.390625 54.6875 
z
" id="DejaVuSans-103"/>
      <path d="M 48.6875 27.296875 
Q 48.6875 37.203125 44.609375 42.84375 
Q 40.53125 48.484375 33.40625 48.484375 
Q 26.265625 48.484375 22.1875 42.84375 
Q 18.109375 37.203125 18.109375 27.296875 
Q 18.109375 17.390625 22.1875 11.75 
Q 26.265625 6.109375 33.40625 6.109375 
Q 40.53125 6.109375 44.609375 11.75 
Q 48.6875 17.390625 48.6875 27.296875 
z
M 18.109375 46.390625 
Q 20.953125 51.265625 25.265625 53.625 
Q 29.59375 56 35.59375 56 
Q 45.5625 56 51.78125 48.09375 
Q 58.015625 40.1875 58.015625 27.296875 
Q 58.015625 14.40625 51.78125 6.484375 
Q 45.5625 -1.421875 35.59375 -1.421875 
Q 29.59375 -1.421875 25.265625 0.953125 
Q 20.953125 3.328125 18.109375 8.203125 
L 18.109375 0 
L 9.078125 0 
L 9.078125 75.984375 
L 18.109375 75.984375 
z
" id="DejaVuSans-98"/>
     </defs>
     <g transform="translate(998.804688 106.434688)scale(0.1 -0.1)">
      <use xlink:href="#DejaVuSans-103"/>
      <use x="63.476562" xlink:href="#DejaVuSans-98"/>
      <use x="126.953125" xlink:href="#DejaVuSans-99"/>
     </g>
    </g>
    <g id="patch_77">
     <path d="M 970.804688 121.112813 
L 990.804688 121.112813 
L 990.804688 114.112813 
L 970.804688 114.112813 
z
" style="fill:#008fd5;"/>
    </g>
    <g id="text_12">
     <!-- dtc -->
     <g transform="translate(998.804688 121.112813)scale(0.1 -0.1)">
      <use xlink:href="#DejaVuSans-100"/>
      <use x="63.476562" xlink:href="#DejaVuSans-116"/>
      <use x="102.685547" xlink:href="#DejaVuSans-99"/>
     </g>
    </g>
    <g id="patch_78">
     <path d="M 970.804688 135.790938 
L 990.804688 135.790938 
L 990.804688 128.790938 
L 970.804688 128.790938 
z
" style="fill:#fc4f30;"/>
    </g>
    <g id="text_13">
     <!-- rfc -->
     <g transform="translate(998.804688 135.790938)scale(0.1 -0.1)">
      <use xlink:href="#DejaVuSans-114"/>
      <use x="41.113281" xlink:href="#DejaVuSans-102"/>
      <use x="76.318359" xlink:href="#DejaVuSans-99"/>
     </g>
    </g>
    <g id="patch_79">
     <path d="M 970.804688 150.469063 
L 990.804688 150.469063 
L 990.804688 143.469063 
L 970.804688 143.469063 
z
" style="fill:#e5ae38;"/>
    </g>
    <g id="text_14">
     <!-- gbc -->
     <g transform="translate(998.804688 150.469063)scale(0.1 -0.1)">
      <use xlink:href="#DejaVuSans-103"/>
      <use x="63.476562" xlink:href="#DejaVuSans-98"/>
      <use x="126.953125" xlink:href="#DejaVuSans-99"/>
     </g>
    </g>
   </g>
  </g>
  <g id="axes_2">
   <g id="patch_80">
    <path d="M 86.4 441 
L 1026 441 
L 1026 268.036364 
L 86.4 268.036364 
z
" style="fill:#f0f0f0;"/>
   </g>
   <g id="matplotlib.axis_3">
    <g id="xtick_1">
     <g id="line2d_13">
      <path clip-path="url(#p9751c03b52)" d="M 129.109091 441 
L 129.109091 268.036364 
" style="fill:none;stroke:#cbcbcb;"/>
     </g>
     <g id="line2d_14"/>
     <g id="text_15">
      <!-- dayswfreq -->
      <defs>
       <path d="M 32.171875 -5.078125 
Q 28.375 -14.84375 24.75 -17.8125 
Q 21.140625 -20.796875 15.09375 -20.796875 
L 7.90625 -20.796875 
L 7.90625 -13.28125 
L 13.1875 -13.28125 
Q 16.890625 -13.28125 18.9375 -11.515625 
Q 21 -9.765625 23.484375 -3.21875 
L 25.09375 0.875 
L 2.984375 54.6875 
L 12.5 54.6875 
L 29.59375 11.921875 
L 46.6875 54.6875 
L 56.203125 54.6875 
z
" id="DejaVuSans-121"/>
       <path d="M 4.203125 54.6875 
L 13.1875 54.6875 
L 24.421875 12.015625 
L 35.59375 54.6875 
L 46.1875 54.6875 
L 57.421875 12.015625 
L 68.609375 54.6875 
L 77.59375 54.6875 
L 63.28125 0 
L 52.6875 0 
L 40.921875 44.828125 
L 29.109375 0 
L 18.5 0 
z
" id="DejaVuSans-119"/>
       <path d="M 14.796875 27.296875 
Q 14.796875 17.390625 18.875 11.75 
Q 22.953125 6.109375 30.078125 6.109375 
Q 37.203125 6.109375 41.296875 11.75 
Q 45.40625 17.390625 45.40625 27.296875 
Q 45.40625 37.203125 41.296875 42.84375 
Q 37.203125 48.484375 30.078125 48.484375 
Q 22.953125 48.484375 18.875 42.84375 
Q 14.796875 37.203125 14.796875 27.296875 
z
M 45.40625 8.203125 
Q 42.578125 3.328125 38.25 0.953125 
Q 33.9375 -1.421875 27.875 -1.421875 
Q 17.96875 -1.421875 11.734375 6.484375 
Q 5.515625 14.40625 5.515625 27.296875 
Q 5.515625 40.1875 11.734375 48.09375 
Q 17.96875 56 27.875 56 
Q 33.9375 56 38.25 53.625 
Q 42.578125 51.265625 45.40625 46.390625 
L 45.40625 54.6875 
L 54.390625 54.6875 
L 54.390625 -20.796875 
L 45.40625 -20.796875 
z
" id="DejaVuSans-113"/>
      </defs>
      <g transform="translate(103.263778 452.098437)scale(0.1 -0.1)">
       <use xlink:href="#DejaVuSans-100"/>
       <use x="63.476562" xlink:href="#DejaVuSans-97"/>
       <use x="124.755859" xlink:href="#DejaVuSans-121"/>
       <use x="183.935547" xlink:href="#DejaVuSans-115"/>
       <use x="236.035156" xlink:href="#DejaVuSans-119"/>
       <use x="317.822266" xlink:href="#DejaVuSans-102"/>
       <use x="353.027344" xlink:href="#DejaVuSans-114"/>
       <use x="391.890625" xlink:href="#DejaVuSans-101"/>
       <use x="453.414062" xlink:href="#DejaVuSans-113"/>
      </g>
     </g>
    </g>
    <g id="xtick_2">
     <g id="line2d_15">
      <path clip-path="url(#p9751c03b52)" d="M 214.527273 441 
L 214.527273 268.036364 
" style="fill:none;stroke:#cbcbcb;"/>
     </g>
     <g id="line2d_16"/>
     <g id="text_16">
      <!-- months -->
      <defs>
       <path d="M 54.890625 33.015625 
L 54.890625 0 
L 45.90625 0 
L 45.90625 32.71875 
Q 45.90625 40.484375 42.875 44.328125 
Q 39.84375 48.1875 33.796875 48.1875 
Q 26.515625 48.1875 22.3125 43.546875 
Q 18.109375 38.921875 18.109375 30.90625 
L 18.109375 0 
L 9.078125 0 
L 9.078125 75.984375 
L 18.109375 75.984375 
L 18.109375 46.1875 
Q 21.34375 51.125 25.703125 53.5625 
Q 30.078125 56 35.796875 56 
Q 45.21875 56 50.046875 50.171875 
Q 54.890625 44.34375 54.890625 33.015625 
z
" id="DejaVuSans-104"/>
      </defs>
      <g transform="translate(195.695241 452.098437)scale(0.1 -0.1)">
       <use xlink:href="#DejaVuSans-109"/>
       <use x="97.412109" xlink:href="#DejaVuSans-111"/>
       <use x="158.59375" xlink:href="#DejaVuSans-110"/>
       <use x="221.972656" xlink:href="#DejaVuSans-116"/>
       <use x="261.181641" xlink:href="#DejaVuSans-104"/>
       <use x="324.560547" xlink:href="#DejaVuSans-115"/>
      </g>
     </g>
    </g>
    <g id="xtick_3">
     <g id="line2d_17">
      <path clip-path="url(#p9751c03b52)" d="M 299.945455 441 
L 299.945455 268.036364 
" style="fill:none;stroke:#cbcbcb;"/>
     </g>
     <g id="line2d_18"/>
     <g id="text_17">
      <!-- tbilled -->
      <g transform="translate(284.393111 452.098437)scale(0.1 -0.1)">
       <use xlink:href="#DejaVuSans-116"/>
       <use x="39.208984" xlink:href="#DejaVuSans-98"/>
       <use x="102.685547" xlink:href="#DejaVuSans-105"/>
       <use x="130.46875" xlink:href="#DejaVuSans-108"/>
       <use x="158.251953" xlink:href="#DejaVuSans-108"/>
       <use x="186.035156" xlink:href="#DejaVuSans-101"/>
       <use x="247.558594" xlink:href="#DejaVuSans-100"/>
      </g>
     </g>
    </g>
    <g id="xtick_4">
     <g id="line2d_19">
      <path clip-path="url(#p9751c03b52)" d="M 385.363636 441 
L 385.363636 268.036364 
" style="fill:none;stroke:#cbcbcb;"/>
     </g>
     <g id="line2d_20"/>
     <g id="text_18">
      <!-- age -->
      <g transform="translate(376.048793 452.098437)scale(0.1 -0.1)">
       <use xlink:href="#DejaVuSans-97"/>
       <use x="61.279297" xlink:href="#DejaVuSans-103"/>
       <use x="124.755859" xlink:href="#DejaVuSans-101"/>
      </g>
     </g>
    </g>
    <g id="xtick_5">
     <g id="line2d_21">
      <path clip-path="url(#p9751c03b52)" d="M 470.781818 441 
L 470.781818 268.036364 
" style="fill:none;stroke:#cbcbcb;"/>
     </g>
     <g id="line2d_22"/>
     <g id="text_19">
      <!-- maccess -->
      <g transform="translate(449.063068 452.098437)scale(0.1 -0.1)">
       <use xlink:href="#DejaVuSans-109"/>
       <use x="97.412109" xlink:href="#DejaVuSans-97"/>
       <use x="158.691406" xlink:href="#DejaVuSans-99"/>
       <use x="213.671875" xlink:href="#DejaVuSans-99"/>
       <use x="268.652344" xlink:href="#DejaVuSans-101"/>
       <use x="330.175781" xlink:href="#DejaVuSans-115"/>
       <use x="382.275391" xlink:href="#DejaVuSans-115"/>
      </g>
     </g>
    </g>
    <g id="xtick_6">
     <g id="line2d_23">
      <path clip-path="url(#p9751c03b52)" d="M 556.2 441 
L 556.2 268.036364 
" style="fill:none;stroke:#cbcbcb;"/>
     </g>
     <g id="line2d_24"/>
     <g id="text_20">
      <!-- nentries -->
      <g transform="translate(535.7 452.098437)scale(0.1 -0.1)">
       <use xlink:href="#DejaVuSans-110"/>
       <use x="63.378906" xlink:href="#DejaVuSans-101"/>
       <use x="124.902344" xlink:href="#DejaVuSans-110"/>
       <use x="188.28125" xlink:href="#DejaVuSans-116"/>
       <use x="227.490234" xlink:href="#DejaVuSans-114"/>
       <use x="268.603516" xlink:href="#DejaVuSans-105"/>
       <use x="296.386719" xlink:href="#DejaVuSans-101"/>
       <use x="357.910156" xlink:href="#DejaVuSans-115"/>
      </g>
     </g>
    </g>
    <g id="xtick_7">
     <g id="line2d_25">
      <path clip-path="url(#p9751c03b52)" d="M 641.618182 441 
L 641.618182 268.036364 
" style="fill:none;stroke:#cbcbcb;"/>
     </g>
     <g id="line2d_26"/>
     <g id="text_21">
      <!-- rmonth -->
      <g transform="translate(623.422869 452.098437)scale(0.1 -0.1)">
       <use xlink:href="#DejaVuSans-114"/>
       <use x="39.363281" xlink:href="#DejaVuSans-109"/>
       <use x="136.775391" xlink:href="#DejaVuSans-111"/>
       <use x="197.957031" xlink:href="#DejaVuSans-110"/>
       <use x="261.335938" xlink:href="#DejaVuSans-116"/>
       <use x="300.544922" xlink:href="#DejaVuSans-104"/>
      </g>
     </g>
    </g>
    <g id="xtick_8">
     <g id="line2d_27">
      <path clip-path="url(#p9751c03b52)" d="M 727.036364 441 
L 727.036364 268.036364 
" style="fill:none;stroke:#cbcbcb;"/>
     </g>
     <g id="line2d_28"/>
     <g id="text_22">
      <!-- nrenewals -->
      <g transform="translate(701.455895 452.098437)scale(0.1 -0.1)">
       <use xlink:href="#DejaVuSans-110"/>
       <use x="63.378906" xlink:href="#DejaVuSans-114"/>
       <use x="102.242188" xlink:href="#DejaVuSans-101"/>
       <use x="163.765625" xlink:href="#DejaVuSans-110"/>
       <use x="227.144531" xlink:href="#DejaVuSans-101"/>
       <use x="288.667969" xlink:href="#DejaVuSans-119"/>
       <use x="370.455078" xlink:href="#DejaVuSans-97"/>
       <use x="431.734375" xlink:href="#DejaVuSans-108"/>
       <use x="459.517578" xlink:href="#DejaVuSans-115"/>
      </g>
     </g>
    </g>
    <g id="xtick_9">
     <g id="line2d_29">
      <path clip-path="url(#p9751c03b52)" d="M 812.454545 441 
L 812.454545 268.036364 
" style="fill:none;stroke:#cbcbcb;"/>
     </g>
     <g id="line2d_30"/>
     <g id="text_23">
      <!-- cfreq -->
      <g transform="translate(799.75142 452.098437)scale(0.1 -0.1)">
       <use xlink:href="#DejaVuSans-99"/>
       <use x="54.980469" xlink:href="#DejaVuSans-102"/>
       <use x="90.185547" xlink:href="#DejaVuSans-114"/>
       <use x="129.048828" xlink:href="#DejaVuSans-101"/>
       <use x="190.572266" xlink:href="#DejaVuSans-113"/>
      </g>
     </g>
    </g>
    <g id="xtick_10">
     <g id="line2d_31">
      <path clip-path="url(#p9751c03b52)" d="M 897.872727 441 
L 897.872727 268.036364 
" style="fill:none;stroke:#cbcbcb;"/>
     </g>
     <g id="line2d_32"/>
     <g id="text_24">
      <!-- sex -->
      <defs>
       <path d="M 54.890625 54.6875 
L 35.109375 28.078125 
L 55.90625 0 
L 45.3125 0 
L 29.390625 21.484375 
L 13.484375 0 
L 2.875 0 
L 24.125 28.609375 
L 4.6875 54.6875 
L 15.28125 54.6875 
L 29.78125 35.203125 
L 44.28125 54.6875 
z
" id="DejaVuSans-120"/>
      </defs>
      <g transform="translate(889.319602 452.098437)scale(0.1 -0.1)">
       <use xlink:href="#DejaVuSans-115"/>
       <use x="52.099609" xlink:href="#DejaVuSans-101"/>
       <use x="111.873047" xlink:href="#DejaVuSans-120"/>
      </g>
     </g>
    </g>
    <g id="xtick_11">
     <g id="line2d_33">
      <path clip-path="url(#p9751c03b52)" d="M 983.290909 441 
L 983.290909 268.036364 
" style="fill:none;stroke:#cbcbcb;"/>
     </g>
     <g id="line2d_34"/>
     <g id="text_25">
      <!-- cref -->
      <g transform="translate(973.762003 452.098437)scale(0.1 -0.1)">
       <use xlink:href="#DejaVuSans-99"/>
       <use x="54.980469" xlink:href="#DejaVuSans-114"/>
       <use x="93.84375" xlink:href="#DejaVuSans-101"/>
       <use x="155.367188" xlink:href="#DejaVuSans-102"/>
      </g>
     </g>
    </g>
    <g id="text_26">
     <!-- features -->
     <g transform="translate(531.415313 467.29625)scale(0.12 -0.12)">
      <use xlink:href="#DejaVuSans-102"/>
      <use x="35.205078" xlink:href="#DejaVuSans-101"/>
      <use x="96.728516" xlink:href="#DejaVuSans-97"/>
      <use x="158.007812" xlink:href="#DejaVuSans-116"/>
      <use x="197.216797" xlink:href="#DejaVuSans-117"/>
      <use x="260.595703" xlink:href="#DejaVuSans-114"/>
      <use x="299.458984" xlink:href="#DejaVuSans-101"/>
      <use x="360.982422" xlink:href="#DejaVuSans-115"/>
     </g>
    </g>
   </g>
   <g id="matplotlib.axis_4">
    <g id="ytick_7">
     <g id="line2d_35">
      <path clip-path="url(#p9751c03b52)" d="M 86.4 436.45002 
L 1026 436.45002 
" style="fill:none;stroke:#cbcbcb;"/>
     </g>
     <g id="line2d_36"/>
     <g id="text_27">
      <!-- 1.5 -->
      <defs>
       <path d="M 10.59375 35.5 
L 73.1875 35.5 
L 73.1875 27.203125 
L 10.59375 27.203125 
z
" id="DejaVuSans-8722"/>
      </defs>
      <g transform="translate(58.617188 440.249238)scale(0.1 -0.1)">
       <use xlink:href="#DejaVuSans-8722"/>
       <use x="83.789062" xlink:href="#DejaVuSans-49"/>
       <use x="147.412109" xlink:href="#DejaVuSans-46"/>
       <use x="179.199219" xlink:href="#DejaVuSans-53"/>
      </g>
     </g>
    </g>
    <g id="ytick_8">
     <g id="line2d_37">
      <path clip-path="url(#p9751c03b52)" d="M 86.4 403.950107 
L 1026 403.950107 
" style="fill:none;stroke:#cbcbcb;"/>
     </g>
     <g id="line2d_38"/>
     <g id="text_28">
      <!-- 1.0 -->
      <g transform="translate(58.617188 407.749326)scale(0.1 -0.1)">
       <use xlink:href="#DejaVuSans-8722"/>
       <use x="83.789062" xlink:href="#DejaVuSans-49"/>
       <use x="147.412109" xlink:href="#DejaVuSans-46"/>
       <use x="179.199219" xlink:href="#DejaVuSans-48"/>
      </g>
     </g>
    </g>
    <g id="ytick_9">
     <g id="line2d_39">
      <path clip-path="url(#p9751c03b52)" d="M 86.4 371.450195 
L 1026 371.450195 
" style="fill:none;stroke:#cbcbcb;"/>
     </g>
     <g id="line2d_40"/>
     <g id="text_29">
      <!-- 0.5 -->
      <g transform="translate(58.617188 375.249414)scale(0.1 -0.1)">
       <use xlink:href="#DejaVuSans-8722"/>
       <use x="83.789062" xlink:href="#DejaVuSans-48"/>
       <use x="147.412109" xlink:href="#DejaVuSans-46"/>
       <use x="179.199219" xlink:href="#DejaVuSans-53"/>
      </g>
     </g>
    </g>
    <g id="ytick_10">
     <g id="line2d_41">
      <path clip-path="url(#p9751c03b52)" d="M 86.4 338.950283 
L 1026 338.950283 
" style="fill:none;stroke:#cbcbcb;"/>
     </g>
     <g id="line2d_42"/>
     <g id="text_30">
      <!-- 0.0 -->
      <g transform="translate(66.996875 342.749501)scale(0.1 -0.1)">
       <use xlink:href="#DejaVuSans-48"/>
       <use x="63.623047" xlink:href="#DejaVuSans-46"/>
       <use x="95.410156" xlink:href="#DejaVuSans-48"/>
      </g>
     </g>
    </g>
    <g id="ytick_11">
     <g id="line2d_43">
      <path clip-path="url(#p9751c03b52)" d="M 86.4 306.45037 
L 1026 306.45037 
" style="fill:none;stroke:#cbcbcb;"/>
     </g>
     <g id="line2d_44"/>
     <g id="text_31">
      <!-- 0.5 -->
      <g transform="translate(66.996875 310.249589)scale(0.1 -0.1)">
       <use xlink:href="#DejaVuSans-48"/>
       <use x="63.623047" xlink:href="#DejaVuSans-46"/>
       <use x="95.410156" xlink:href="#DejaVuSans-53"/>
      </g>
     </g>
    </g>
    <g id="ytick_12">
     <g id="line2d_45">
      <path clip-path="url(#p9751c03b52)" d="M 86.4 273.950458 
L 1026 273.950458 
" style="fill:none;stroke:#cbcbcb;"/>
     </g>
     <g id="line2d_46"/>
     <g id="text_32">
      <!-- 1.0 -->
      <g transform="translate(66.996875 277.749677)scale(0.1 -0.1)">
       <use xlink:href="#DejaVuSans-49"/>
       <use x="63.623047" xlink:href="#DejaVuSans-46"/>
       <use x="95.410156" xlink:href="#DejaVuSans-48"/>
      </g>
     </g>
    </g>
    <g id="text_33">
     <!-- Coeficients -->
     <defs>
      <path d="M 64.40625 67.28125 
L 64.40625 56.890625 
Q 59.421875 61.53125 53.78125 63.8125 
Q 48.140625 66.109375 41.796875 66.109375 
Q 29.296875 66.109375 22.65625 58.46875 
Q 16.015625 50.828125 16.015625 36.375 
Q 16.015625 21.96875 22.65625 14.328125 
Q 29.296875 6.6875 41.796875 6.6875 
Q 48.140625 6.6875 53.78125 8.984375 
Q 59.421875 11.28125 64.40625 15.921875 
L 64.40625 5.609375 
Q 59.234375 2.09375 53.4375 0.328125 
Q 47.65625 -1.421875 41.21875 -1.421875 
Q 24.65625 -1.421875 15.125 8.703125 
Q 5.609375 18.84375 5.609375 36.375 
Q 5.609375 53.953125 15.125 64.078125 
Q 24.65625 74.21875 41.21875 74.21875 
Q 47.75 74.21875 53.53125 72.484375 
Q 59.328125 70.75 64.40625 67.28125 
z
" id="DejaVuSans-67"/>
     </defs>
     <g transform="translate(52.121562 387.788182)rotate(-90)scale(0.12 -0.12)">
      <use xlink:href="#DejaVuSans-67"/>
      <use x="69.824219" xlink:href="#DejaVuSans-111"/>
      <use x="131.005859" xlink:href="#DejaVuSans-101"/>
      <use x="192.529297" xlink:href="#DejaVuSans-102"/>
      <use x="227.734375" xlink:href="#DejaVuSans-105"/>
      <use x="255.517578" xlink:href="#DejaVuSans-99"/>
      <use x="310.498047" xlink:href="#DejaVuSans-105"/>
      <use x="338.28125" xlink:href="#DejaVuSans-101"/>
      <use x="399.804688" xlink:href="#DejaVuSans-110"/>
      <use x="463.183594" xlink:href="#DejaVuSans-116"/>
      <use x="502.392578" xlink:href="#DejaVuSans-115"/>
     </g>
    </g>
   </g>
   <g id="patch_81">
    <path clip-path="url(#p9751c03b52)" d="M 107.754545 338.950283 
L 150.463636 338.950283 
L 150.463636 338.671038 
L 107.754545 338.671038 
z
" style="fill:#008fd5;"/>
   </g>
   <g id="patch_82">
    <path clip-path="url(#p9751c03b52)" d="M 193.172727 338.950283 
L 235.881818 338.950283 
L 235.881818 344.710487 
L 193.172727 344.710487 
z
" style="fill:#008fd5;"/>
   </g>
   <g id="patch_83">
    <path clip-path="url(#p9751c03b52)" d="M 278.590909 338.950283 
L 321.3 338.950283 
L 321.3 339.109082 
L 278.590909 339.109082 
z
" style="fill:#008fd5;"/>
   </g>
   <g id="patch_84">
    <path clip-path="url(#p9751c03b52)" d="M 364.009091 338.950283 
L 406.718182 338.950283 
L 406.718182 340.996221 
L 364.009091 340.996221 
z
" style="fill:#008fd5;"/>
   </g>
   <g id="patch_85">
    <path clip-path="url(#p9751c03b52)" d="M 449.427273 338.950283 
L 492.136364 338.950283 
L 492.136364 433.138017 
L 449.427273 433.138017 
z
" style="fill:#008fd5;"/>
   </g>
   <g id="patch_86">
    <path clip-path="url(#p9751c03b52)" d="M 534.845455 338.950283 
L 577.554545 338.950283 
L 577.554545 337.818416 
L 534.845455 337.818416 
z
" style="fill:#008fd5;"/>
   </g>
   <g id="patch_87">
    <path clip-path="url(#p9751c03b52)" d="M 620.263636 338.950283 
L 662.972727 338.950283 
L 662.972727 343.420496 
L 620.263636 343.420496 
z
" style="fill:#008fd5;"/>
   </g>
   <g id="patch_88">
    <path clip-path="url(#p9751c03b52)" d="M 705.681818 338.950283 
L 748.390909 338.950283 
L 748.390909 364.043084 
L 705.681818 364.043084 
z
" style="fill:#008fd5;"/>
   </g>
   <g id="patch_89">
    <path clip-path="url(#p9751c03b52)" d="M 791.1 338.950283 
L 833.809091 338.950283 
L 833.809091 320.771979 
L 791.1 320.771979 
z
" style="fill:#008fd5;"/>
   </g>
   <g id="patch_90">
    <path clip-path="url(#p9751c03b52)" d="M 876.518182 338.950283 
L 919.227273 338.950283 
L 919.227273 328.339965 
L 876.518182 328.339965 
z
" style="fill:#008fd5;"/>
   </g>
   <g id="patch_91">
    <path clip-path="url(#p9751c03b52)" d="M 961.936364 338.950283 
L 1004.645455 338.950283 
L 1004.645455 275.898347 
L 961.936364 275.898347 
z
" style="fill:#008fd5;"/>
   </g>
   <g id="patch_92">
    <path d="M 86.4 441 
L 86.4 268.036364 
" style="fill:none;stroke:#f0f0f0;stroke-linecap:square;stroke-linejoin:miter;stroke-width:3;"/>
   </g>
   <g id="patch_93">
    <path d="M 1026 441 
L 1026 268.036364 
" style="fill:none;stroke:#f0f0f0;stroke-linecap:square;stroke-linejoin:miter;stroke-width:3;"/>
   </g>
   <g id="patch_94">
    <path d="M 86.4 441 
L 1026 441 
" style="fill:none;stroke:#f0f0f0;stroke-linecap:square;stroke-linejoin:miter;stroke-width:3;"/>
   </g>
   <g id="patch_95">
    <path d="M 86.4 268.036364 
L 1026 268.036364 
" style="fill:none;stroke:#f0f0f0;stroke-linecap:square;stroke-linejoin:miter;stroke-width:3;"/>
   </g>
   <g id="legend_2">
    <g id="patch_96">
     <path d="M 93.4 290.714489 
L 132.289062 290.714489 
Q 134.289062 290.714489 134.289062 288.714489 
L 134.289062 275.036364 
Q 134.289062 273.036364 132.289062 273.036364 
L 93.4 273.036364 
Q 91.4 273.036364 91.4 275.036364 
L 91.4 288.714489 
Q 91.4 290.714489 93.4 290.714489 
z
" style="fill:#f0f0f0;opacity:0.8;stroke:#cccccc;stroke-linejoin:miter;stroke-width:0.5;"/>
    </g>
    <g id="patch_97">
     <path d="M 95.4 284.634801 
L 115.4 284.634801 
L 115.4 277.634801 
L 95.4 277.634801 
z
" style="fill:#008fd5;"/>
    </g>
    <g id="text_34">
     <!-- lr -->
     <g transform="translate(123.4 284.634801)scale(0.1 -0.1)">
      <use xlink:href="#DejaVuSans-108"/>
      <use x="27.783203" xlink:href="#DejaVuSans-114"/>
     </g>
    </g>
   </g>
  </g>
 </g>
 <defs>
  <clipPath id="p35d663ccf8">
   <rect height="172.963636" width="939.6" x="86.4" y="60.48"/>
  </clipPath>
  <clipPath id="p9751c03b52">
   <rect height="172.963636" width="939.6" x="86.4" y="268.036364"/>
  </clipPath>
 </defs>
</svg>
